<?xml version="1.0" encoding="UTF-8" standalone="no"?>
<!-- Created with Inkscape (http://www.inkscape.org/) -->

<svg
   version="1.1"
   id="svg1"
   width="911.86847"
   height="481.52487"
   viewBox="0 0 911.86847 481.52487"
   sodipodi:docname="logo.svg"
   inkscape:version="1.3.2 (091e20e, 2023-11-25, custom)"
   xmlns:inkscape="http://www.inkscape.org/namespaces/inkscape"
   xmlns:sodipodi="http://sodipodi.sourceforge.net/DTD/sodipodi-0.dtd"
   xmlns="http://www.w3.org/2000/svg"
   xmlns:svg="http://www.w3.org/2000/svg">
  <defs
     id="defs1" />
  <sodipodi:namedview
     id="namedview1"
     pagecolor="#ffffff"
     bordercolor="#000000"
     borderopacity="0.25"
     inkscape:showpageshadow="2"
     inkscape:pageopacity="0.0"
     inkscape:pagecheckerboard="0"
     inkscape:deskcolor="#d1d1d1"
     showgrid="false"
     inkscape:zoom="0.50248776"
     inkscape:cx="1086.5936"
     inkscape:cy="315.43057"
     inkscape:window-width="3440"
     inkscape:window-height="1351"
     inkscape:window-x="3191"
     inkscape:window-y="-9"
     inkscape:window-maximized="1"
     inkscape:current-layer="g1" />
  <g
     inkscape:groupmode="layer"
     inkscape:label="Image"
     id="g1"
     transform="translate(-316.20548,-517.20181)">
    <path
       style="fill:#000000"
       d="m 555.19228,998.41354 c -3.50546,-0.5812 -6.47745,-2.4484 -8.21694,-5.1627 -0.89046,-1.3894 -1.90131,-4.9861 -1.50449,-5.3531 0.14728,-0.1362 1.09578,-0.3118 2.10778,-0.3901 1.69578,-0.1313 1.84025,-0.09 1.84313,0.5239 0.002,0.3665 0.35111,1.4137 0.77644,2.3272 1.4654,3.1474 4.9095,4.768 9.59119,4.513 3.1424,-0.1711 5.19201,-1.0034 6.41279,-2.6039 1.84128,-2.414 1.27554,-5.2989 -1.33971,-6.8315 -0.78866,-0.4622 -3.78519,-1.4589 -6.66498,-2.217 -5.79361,-1.525 -7.87055,-2.4275 -9.53827,-4.1447 -3.97574,-4.0936 -1.99151,-10.9904 3.81833,-13.2715 1.61684,-0.6349 2.47522,-0.7465 5.74108,-0.7465 3.26732,0 4.12393,0.1115 5.74381,0.7475 3.46889,1.3619 6.45421,5.119 6.19478,7.7962 -0.0969,0.9998 -0.13037,1.0192 -1.92209,1.113 l -1.8235,0.096 -0.36889,-1.37 c -0.49853,-1.8514 -2.58299,-3.9142 -4.46961,-4.4232 -2.11732,-0.5713 -6.60498,-0.2826 -8.17067,0.5255 -3.42969,1.7703 -3.65916,5.9843 -0.41714,7.6608 0.52259,0.2703 3.37827,1.1226 6.34595,1.894 7.55914,1.9649 9.60159,3.0982 11.09873,6.1582 0.67676,1.3833 0.86298,2.2183 0.84807,3.8027 -0.0641,6.8141 -7.01929,10.8597 -16.08579,9.3567 z m 82.54635,0.036 c -2.37309,-0.4951 -5.83304,-2.3965 -7.62901,-4.1924 -3.02837,-3.0284 -4.52397,-7.0893 -4.52246,-12.2796 0.002,-5.3336 1.36078,-9.3461 4.20656,-12.418 4.71848,-5.0934 13.40714,-6.1809 19.60602,-2.4538 4.72214,2.8392 7.30689,8.0434 7.30689,14.7118 0,9.9215 -5.68819,16.3767 -14.808,16.8048 -1.496,0.07 -3.368,-0.01 -4.16,-0.1728 z m 8,-4.3478 c 0.968,-0.4382 2.3609,-1.3845 3.09534,-2.1029 4.60946,-4.5088 4.77758,-15.0639 0.31854,-19.9995 -5.3956,-5.9723 -15.87769,-3.8078 -18.37213,3.7938 -2.42602,7.3931 -0.27738,15.1004 5.01232,17.9794 3.06572,1.6686 6.71975,1.7895 9.94593,0.3292 z m 41.00187,4.2041 c -4.84494,-1.1023 -8.39007,-3.666 -10.4254,-7.5392 -3.57656,-6.8062 -2.37421,-16.6208 2.65188,-21.6469 5.49652,-5.4965 17.00631,-5.6974 21.97677,-0.3836 1.40545,1.5025 2.54958,3.6055 2.76905,5.0896 0.089,0.602 -0.12283,0.7844 -1.33417,1.1489 -0.792,0.2382 -1.60023,0.4354 -1.79607,0.438 -0.19584,0 -0.81634,-0.93 -1.37888,-2.0727 -1.22806,-2.4946 -2.85915,-3.7579 -5.83641,-4.5207 -2.35369,-0.603 -5.23841,-0.4194 -7.61828,0.4849 -4.59408,1.7456 -7.0544,6.0985 -7.04656,12.4671 0.008,6.3439 2.00437,9.9708 6.7016,12.1739 1.58098,0.7416 2.15864,0.8312 5.2946,0.8216 3.09279,-0.01 3.76803,-0.1157 5.56367,-0.8753 1.12401,-0.4755 2.52801,-1.234 3.12,-1.6855 l 1.07633,-0.821 v -3.0237 -3.0237 h -4.96 -4.96 v -1.92 -1.92 h 7.04 7.04 v 6.0865 6.0864 l -2.31484,1.4975 c -4.67112,3.0217 -10.71664,4.2406 -15.56329,3.1379 z m -96.68187,-16.488 v -16.32 h 2.08 2.08 v 14.3945 14.3945 l 8.08,0.086 8.08,0.085 0.096,1.84 0.096,1.84 H 600.3146 590.05863 Z m 127.68181,16.24 c 9.9e-4,-0.044 2.79159,-7.352 6.20133,-16.24 l 6.19952,-16.16 h 2.45948 2.45948 l 6.38214,15.68 c 3.51018,8.624 6.46252,15.932 6.56076,16.24 0.15919,0.4991 -0.0799,0.56 -2.19912,0.56 h -2.37772 l -1.87555,-4.9659 -1.87555,-4.966 -7.0029,0.086 -7.0029,0.086 -1.24352,3.52 c -0.68393,1.936 -1.47227,4.132 -1.75185,4.88 l -0.50834,1.36 h -2.21354 c -1.21744,0 -2.21272,-0.036 -2.21172,-0.08 z m 20.47819,-13.4766 c 0,-0.064 -0.59513,-1.6841 -1.32251,-3.6 -0.72738,-1.9159 -2.01092,-5.4274 -2.85232,-7.8034 -0.84139,-2.376 -1.59225,-4.104 -1.66857,-3.84 -0.42219,1.4604 -3.50003,10.4647 -4.34795,12.72 l -0.99255,2.64 h 5.59195 c 3.07557,0 5.59195,-0.053 5.59195,-0.1166 z m 24,-2.7634 v -16.32 h 2.16 2.16 l 8.48,12.6608 8.48,12.6608 0.0837,-12.6627 0.0837,-12.6626 h 2.07633 2.07633 v 16.32 16.32 h -2.18783 -2.18782 l -8.61218,-12.88 -8.61217,-12.88 -0.0836,12.88 -0.0836,12.88 h -1.91649 -1.91637 z m 58.88,0 v -16.32 h 2.08 2.08 v 6.7252 6.7253 l 8.56,-0.085 8.56,-0.085 0.0865,-6.64 0.0865,-6.64 h 2.07351 2.07351 v 16.32 16.32 h -2.08 -2.08 v -7.68 -7.68 h -8.64 -8.64 v 7.68 7.68 h -2.08 -2.08 z m 45.76,0 v -16.32 h 11.84 11.84 v 1.7553 1.7553 l -9.68,0.085 -9.68,0.085 -0.0881,5.04 -0.0881,5.04 h 9.12812 9.12813 v 1.92 1.92 h -9.12005 -9.12 v 5.6 5.6 h 10.08 10.08 v 1.92 1.92 h -12.16 -12.16 z m 43.52,-0.021 v -16.3409 l 9.84,0.1009 9.84,0.1008 1.84124,0.9041 c 3.09837,1.5215 4.55258,4.315 4.34864,8.3538 -0.20569,4.0731 -2.39301,6.5787 -6.79602,7.7849 l -2.1468,0.5881 1.57394,1.0198 c 0.86566,0.561 2.15536,1.778 2.86598,2.7046 1.2548,1.6361 7.11302,10.6949 7.11302,10.9991 0,0.083 -1.17473,0.1097 -2.61052,0.059 l -2.61051,-0.093 -3.22949,-5.0288 c -5.70873,-8.8894 -6.12859,-9.2112 -12.01673,-9.2112 h -3.85275 v 7.2 7.2 h -2.08 -2.08 z m 18.88,-2.8592 c 3.03123,-1.684 3.70602,-5.4496 1.42835,-7.9708 -1.56469,-1.7319 -2.66457,-1.9492 -9.86548,-1.9492 h -6.28287 v 5.468 5.4679 l 6.64,-0.1079 c 6.38428,-0.1038 6.69546,-0.1388 8.08,-0.908 z m 26.88,2.88 v -16.32 h 11.84 11.83999 v 1.76 1.76 h -9.59999 -9.6 v 5.12 5.12 h 8.96 8.95999 v 1.92 1.92 h -8.95999 -8.96 v 5.5954 5.5955 l 10,0.085 9.99999,0.085 0.096,1.84 0.096,1.84 H 968.4746 956.13863 Z m -630.72,12.48 v -3.2 h 95.84 95.84 v 3.2 3.2 h -95.84 -95.84 z m 688.63997,0 v -3.2 h 95.84 95.84 v 3.2 3.2 h -95.84 -95.84 z m -688.63997,-32.64 v -3.2 h 95.84 95.84 v 3.2 3.2 h -95.84 -95.84 z m 688.63997,5e-4 v -3.2005 h 95.8516 95.8516 l -0.092,3.12 -0.092,3.12 -95.76,0.081 -95.76,0.081 z M 533.82151,914.27892 c -5.70081,-0.69704 -10.28717,-3.06152 -14.80288,-7.63157 -3.32269,-3.36268 -5.28556,-6.33912 -7.37205,-11.17878 -5.38415,-12.48863 -7.34486,-32.97956 -4.92991,-51.52126 1.84526,-14.16763 6.73321,-25.6085 13.6021,-31.83741 5.0969,-4.62202 11.85571,-6.94645 18.85986,-6.48611 3.97945,0.26155 6.56057,0.89645 9.72963,2.39328 11.75937,5.55425 18.57134,19.7416 20.37768,42.44077 0.47406,5.95719 0.21393,18.61403 -0.49655,24.16 -2.51169,19.60608 -9.38494,32.43989 -20.04485,37.428 -4.1724,1.9524 -10.03891,2.83026 -14.92303,2.23308 z m 8.71712,-15.49976 c 2.31616,-1.12681 3.76697,-2.44472 5.40702,-4.91172 2.72477,-4.09863 4.74145,-10.52042 5.84411,-18.6096 0.74012,-5.42956 0.84107,-22.8075 0.16358,-28.16 -1.78102,-14.07108 -5.74983,-22.67848 -11.83824,-25.67433 -1.90721,-0.93847 -2.40452,-1.04426 -4.85077,-1.03193 -3.37521,0.017 -5.02555,0.69002 -7.55259,3.07999 -2.9589,2.79841 -4.90685,6.73401 -6.54642,13.22627 -1.68812,6.6845 -2.06824,10.98176 -2.05219,23.2 0.0128,9.78089 0.0955,11.55821 0.72487,15.58373 1.58416,10.13259 3.87998,16.20366 7.67947,20.30756 1.7925,1.93611 3.86591,3.22926 6.05986,3.77941 1.8632,0.46721 5.14281,0.0953 6.9613,-0.78938 z m 99.04,15.31007 c -13.01959,-1.97656 -22.4425,-11.56837 -23.99294,-24.42299 -0.20306,-1.68352 -0.32706,-15.19582 -0.32706,-35.63894 0,-28.23946 -0.0714,-33.40794 -0.50126,-36.30316 -0.61354,-4.13196 -1.72,-7.72178 -2.8276,-9.17392 -0.45713,-0.59932 -0.83114,-1.17129 -0.83114,-1.27103 0,-0.0997 5.256,-0.18135 11.68,-0.18135 6.424,0 11.68,0.0872 11.68,0.19381 0,0.10659 -0.34881,0.60834 -0.77514,1.115 -1.68275,1.99984 -2.86106,6.69016 -3.37576,13.43742 -0.42823,5.61366 -0.43819,64.08415 -0.0114,66.69377 0.91028,5.56546 5.14616,9.75979 10.8757,10.76903 2.3941,0.42171 5.09913,-0.0259 7.62849,-1.26238 2.29367,-1.12124 5.21635,-4.27923 6.18705,-6.6852 l 0.75106,-1.86145 0.0994,-32.48 c 0.10578,-34.54992 -0.002,-37.96164 -1.36973,-43.35336 -0.8095,-3.19112 -1.33229,-4.40086 -2.38256,-5.51326 -0.36693,-0.38864 -0.66715,-0.78464 -0.66715,-0.88 0,-0.0954 5.328,-0.17338 11.84,-0.17338 10.6573,0 12.93977,0.1495 11.38588,0.74579 -0.77214,0.2963 -2.34572,4.05741 -3.10196,7.41421 -0.718,3.18704 -0.7217,3.34714 -0.91372,39.52 -0.19008,35.80755 -0.20244,36.35428 -0.87559,38.74989 -3.01548,10.73137 -11.37159,18.42517 -22.02993,20.28383 -2.57008,0.44819 -6.20518,0.57212 -8.14468,0.27767 z m -264.96,-1.55416 c 0,-0.0895 0.43355,-0.76127 0.96344,-1.49276 1.13539,-1.56736 2.04663,-4.35009 2.80673,-8.57109 0.50032,-2.77846 0.54983,-6.61168 0.54983,-42.57338 0,-41.05372 0.002,-40.97083 -1.33176,-46.4 -0.56248,-2.28896 -1.6984,-4.76789 -2.48328,-5.41928 -0.27773,-0.2305 -0.50496,-0.54753 -0.50496,-0.70453 0,-0.1629 4.22173,-0.24911 9.83383,-0.20081 l 9.83383,0.0846 8.54176,19.52 c 13.61458,31.11266 14.10832,32.21215 14.34275,31.93934 0.12256,-0.14264 5.25046,-11.81004 11.39534,-25.92756 l 11.17249,-25.6682 10,-0.0118 c 5.5,-0.006 10,0.0662 10,0.1616 0,0.0954 -0.30586,0.49136 -0.6797,0.88 -1.54429,1.60547 -2.88656,6.2598 -3.46662,12.02053 -0.45769,4.54553 -0.45301,74.65544 0.005,79.12143 0.60536,5.8991 1.81774,10.25598 3.36589,12.09585 0.42633,0.50666 0.77514,1.00841 0.77514,1.115 0,0.1066 -5.328,0.19381 -11.84,0.19381 -6.512,0 -11.84,-0.12168 -11.84,-0.2704 0,-0.14873 0.27175,-0.51634 0.60389,-0.81692 1.01007,-0.9141 2.27768,-4.17676 2.9026,-7.47086 0.54441,-2.86975 0.603,-5.63602 0.72562,-34.25974 0.0734,-17.12586 0.0156,-30.92738 -0.12845,-30.67004 -0.14401,0.25734 -5.31652,12.1814 -11.49446,26.49792 -6.17794,14.31652 -11.33567,26.21646 -11.46162,26.44431 -0.13569,0.24548 -2.29746,-4.38314 -5.3056,-11.36 -12.05614,-27.96203 -17.80482,-41.20378 -17.9517,-41.35066 -0.0865,-0.0865 -0.10766,13.8048 -0.047,30.86956 0.10743,30.23651 0.12744,31.10019 0.78528,33.90683 0.91313,3.89584 1.54397,5.54441 2.64876,6.92207 0.51255,0.63914 0.84284,1.25114 0.73397,1.36 -0.23594,0.23595 -23.45126,0.27075 -23.45126,0.0352 z m 343.36,-0.016 c 0,-0.0983 0.42345,-0.71032 0.941,-1.36 1.32344,-1.66133 2.47295,-5.37721 3.06047,-9.89328 0.43831,-3.36909 0.48868,-8.89409 0.39506,-43.33468 l -0.1073,-39.47328 -0.72636,-3.2 c -0.80523,-3.54741 -1.5776,-5.51447 -2.78876,-7.10238 l -0.80668,-1.05761 h 9.8745 9.8745 l 9.97031,24.72 c 5.48366,13.596 11.45147,28.21913 13.26178,32.49585 l 3.29148,7.77586 0.0876,-25.37586 c 0.0751,-21.75119 0.0155,-25.87322 -0.41721,-28.85785 -0.61028,-4.20926 -1.71585,-7.83272 -2.83928,-9.30562 -0.45713,-0.59932 -0.83114,-1.17129 -0.83114,-1.27103 0,-0.0997 5.256,-0.18135 11.68,-0.18135 6.424,0 11.68,0.0872 11.68,0.19381 0,0.10659 -0.34881,0.60834 -0.77514,1.115 -1.67235,1.98748 -2.88748,6.80227 -3.41326,13.52463 -0.46586,5.95625 -0.18873,77.06542 0.31134,79.88656 0.88633,5.00025 1.96223,8.15791 3.25094,9.54118 0.34437,0.36963 0.62612,0.82447 0.62612,1.01075 0,0.2318 -2.63949,0.31177 -8.3628,0.25338 l -8.3628,-0.0853 -11.28692,-27.68 c -11.56382,-28.35908 -17.80383,-43.36302 -18.19842,-43.7576 -0.39562,-0.39563 0.006,58.73004 0.41499,61.0376 0.69213,3.90859 1.71769,7.09715 2.79999,8.70544 0.59178,0.87938 1.07596,1.6564 1.07596,1.72672 0,0.0703 -5.328,0.12784 -11.84,0.12784 -6.512,0 -11.84,-0.0804 -11.84,-0.17876 z m 121.28,-0.003 c 0,-0.0997 0.3722,-0.66933 0.82711,-1.26575 1.08139,-1.41777 2.21189,-4.71817 2.90682,-8.48617 0.50743,-2.75138 0.56795,-6.60459 0.66523,-42.35528 l 0.10702,-39.32854 -4.20969,0.22224 c -7.82406,0.41305 -14.05769,1.94841 -15.63708,3.85146 -0.22978,0.27687 -0.54414,0.50339 -0.69859,0.50339 -0.15464,0 -0.28082,-4.16989 -0.28082,-9.28 v -9.28 h 28.16 28.16 v 9.28 c 0,5.104 -0.0733,9.28 -0.16277,9.28 -0.0895,0 -0.74751,-0.42358 -1.46219,-0.94129 -2.54761,-1.84548 -7.91532,-3.06741 -15.06393,-3.42921 l -4.11111,-0.20765 v 38.53768 c 0,24.987 0.11818,39.49114 0.33609,41.24929 0.59098,4.76813 1.99195,9.31289 3.21084,10.41597 1.52951,1.38419 1.2837,1.41563 -11.06693,1.41563 -6.424,0 -11.68,-0.0816 -11.68,-0.18135 z m 73.92,-0.004 c 0,-0.1019 0.64572,-0.83098 1.43493,-1.62019 1.85665,-1.85666 4.51421,-7.14772 6.19435,-12.33263 1.52017,-4.69127 18.16833,-72.32108 18.65492,-75.78192 0.80814,-5.74772 -0.932,-11.68488 -4.25954,-14.53313 l -1.33986,-1.14636 h 11.4115 11.41151 l 0.17549,0.72 c 13.4866,55.33215 21.77209,88.83551 22.54639,91.16856 1.4429,4.34836 4.1879,9.78588 5.9031,11.69363 0.807,0.89751 1.4672,1.71869 1.4672,1.82483 0,0.10614 -5.472,0.19298 -12.15999,0.19298 -6.688,0 -12.16,-0.0985 -12.16,-0.21897 0,-0.12043 0.3219,-0.87643 0.71532,-1.68 0.62555,-1.27767 0.71204,-1.94296 0.68915,-5.30103 -0.0278,-4.08293 -0.14738,-4.92214 -1.78901,-12.56 l -1.04888,-4.88 h -11.25117 -11.25117 l -0.51083,2.32 c -1.57011,7.13081 -1.83042,8.76656 -1.99876,12.56 -0.14639,3.29882 -0.0743,4.59059 0.34837,6.24 0.29313,1.144 0.61366,2.404 0.71228,2.8 l 0.17931,0.72 h -12.03731 c -6.62051,0 -12.0373,-0.0834 -12.0373,-0.18526 z m 44.68039,-39.09423 c -0.0895,-0.308 -1.8295,-8.48 -3.86665,-18.16 -4.55552,-21.64662 -4.18439,-20.05621 -4.44308,-19.04 -0.31729,1.24638 -7.89066,37.26402 -7.89066,37.52661 0,0.12836 3.6817,0.23339 8.18156,0.23339 7.64063,0 8.17081,-0.037 8.01883,-0.56 z m 67.63958,38.92619 c 0,-0.19459 0.3488,-0.76834 0.7751,-1.275 0.979,-1.16349 1.9126,-3.64534 2.572,-6.83788 1.0277,-4.97564 1.1814,-12.11065 1.0444,-48.49331 -0.1305,-34.64559 -0.1539,-35.7829 -0.8084,-39.22925 -0.7816,-4.11525 -1.7118,-6.79921 -2.808,-8.10194 -0.4263,-0.50666 -0.7751,-1.00841 -0.7751,-1.115 0,-0.1066 5.256,-0.19381 11.68,-0.19381 6.424,0 11.68,0.0816 11.68,0.18135 0,0.0997 -0.3721,0.66917 -0.8268,1.2654 -1.1665,1.52934 -2.2656,5.00777 -2.8531,9.02971 -0.441,3.01949 -0.4902,8.40871 -0.3991,43.76354 0.1019,39.55533 0.1165,40.37478 0.7718,43.20864 0.7682,3.32188 1.8167,5.94165 2.6968,6.73814 1.5265,1.38145 1.2776,1.41322 -11.0696,1.41322 -8.3173,0 -11.68,-0.10186 -11.68,-0.35381 z m 67.2,0.16 c 0,-0.10659 0.3488,-0.60834 0.7751,-1.115 1.5248,-1.81212 2.7876,-6.24821 3.3803,-11.87542 0.4444,-4.21835 0.4271,-75.51508 -0.019,-79.54838 -0.6535,-5.90457 -1.856,-10.12012 -3.3453,-11.72712 -0.435,-0.46928 -0.7908,-0.91782 -0.7908,-0.99676 0,-0.0789 4.428,-0.14128 9.84,-0.13856 l 9.84,0.005 5.1019,12.71505 c 11.3907,28.38816 20.9885,51.71214 21.4832,52.2068 0.091,0.0911 0.1141,-11.92527 0.051,-26.70305 -0.1128,-26.48287 -0.1248,-26.91465 -0.8338,-30.0687 -0.7772,-3.45755 -1.919,-6.29177 -2.9968,-7.43906 l -0.6773,-0.72094 h 11.8958 c 6.5427,0 11.8958,0.0804 11.8958,0.17876 0,0.0983 -0.4219,0.71032 -0.9376,1.36 -1.1284,1.42169 -2.0594,4.10384 -2.8189,8.12069 -0.5191,2.74574 -0.5635,6.13178 -0.5635,42.98055 0,36.93786 0.043,40.23272 0.5674,43.04 0.7504,4.02045 1.6609,6.70696 2.8113,8.29504 0.5177,0.71468 0.9413,1.37506 0.9413,1.4675 0,0.0924 -3.7777,0.1297 -8.3948,0.0828 l -8.3948,-0.0853 -11.544,-28.32 c -6.3493,-15.576 -12.3484,-30.192 -13.3314,-32.48 -0.9831,-2.288 -2.4146,-5.672 -3.1812,-7.52 l -1.3938,-3.36 -0.096,27.52 c -0.1,28.55144 0.016,32.07181 1.2221,37.19773 0.6447,2.7402 1.8171,5.41816 2.6887,6.14155 0.2778,0.2305 0.505,0.54545 0.505,0.6999 0,0.15603 -5.2614,0.28082 -11.84,0.28082 -6.512,0 -11.84,-0.0872 -11.84,-0.19381 z m -764.45705,-34.2353 c -9.52157,-2.55974 -15.6588,-12.39666 -13.65768,-21.89089 1.41493,-6.71309 6.49029,-12.35502 12.99476,-14.44541 3.20561,-1.03021 7.99761,-0.95773 11.36,0.17182 4.97066,1.66981 8.80311,5.01497 11.03692,9.63359 1.57605,3.25862 2.05773,5.75993 1.8348,9.52791 -0.21831,3.68973 -1.09179,6.27063 -3.17779,9.38946 -2.51211,3.7559 -6.35009,6.45822 -10.88806,7.66625 -2.16564,0.5765 -7.26768,0.54819 -9.50295,-0.0527 z m 874.15115,0.0372 c -4.4303,-1.21983 -8.2793,-3.95963 -10.748,-7.65076 -2.086,-3.11883 -2.9595,-5.69973 -3.1778,-9.38946 -0.2229,-3.76798 0.2587,-6.26929 1.8348,-9.52791 2.238,-4.62741 6.0049,-7.90922 11.0491,-9.6263 3.3423,-1.13773 8.1298,-1.21329 11.3478,-0.17911 6.5045,2.09039 11.5798,7.73232 12.9948,14.44541 2.0157,9.56361 -4.1789,19.40194 -13.7931,21.90611 -2.2889,0.5962 -7.3795,0.60799 -9.5076,0.022 z M 598.74302,722.05552 c -1.11109,-24.41872 -2.11562,-44.63237 -2.23228,-44.91922 -0.16447,-0.40439 -5.49511,3.95396 -23.73211,19.40345 -12.936,10.95875 -23.55813,19.89131 -23.60474,19.85013 -0.0466,-0.0412 5.46534,-10.13456 12.24879,-22.42975 6.78345,-12.29519 12.27266,-22.50505 12.19826,-22.68859 -0.17012,-0.41961 -38.96494,-22.12509 -39.3333,-22.00676 -0.21372,0.0687 -37.88949,27.66723 -108.38901,79.39805 -1.32,0.96858 -2.21361,1.53025 -1.9858,1.24814 1.20908,-1.49726 108.64279,-102.48742 108.99379,-102.45668 0.22887,0.02 5.99344,4.68661 12.81015,10.37012 l 12.39402,10.33366 1.52722,-1.57012 c 0.83997,-0.86356 5.94024,-6.13133 11.33392,-11.70615 l 9.8067,-10.13604 v -7.37705 -7.37705 l -6.06713,-0.0869 -6.06712,-0.0869 7.61425,-13.21113 c 4.18784,-7.26612 7.76319,-13.36006 7.94521,-13.54208 0.22795,-0.22795 1.73842,2.11085 4.85288,7.51416 2.48705,4.31481 4.52191,7.98705 4.52191,8.16052 0,0.17347 -0.252,0.40095 -0.56,0.50551 -0.308,0.10456 -0.82147,0.38907 -1.14105,0.63224 -0.5461,0.41552 -0.44327,0.67976 1.70891,4.39145 1.25949,2.17213 2.3866,4.05177 2.5047,4.17697 0.1181,0.12521 20.13718,-20.35879 44.48683,-45.52 24.34966,-25.1612 44.36401,-45.73686 44.47636,-45.72368 0.11234,0.0132 9.42025,10.45944 20.68425,23.21392 11.264,12.75448 21.28381,24.07814 22.26623,25.16368 l 1.78624,1.97373 7.01376,-5.72879 c 3.85758,-3.15083 7.75104,-6.35076 8.65215,-7.11095 l 1.63838,-1.38218 30.68162,38.06707 c 16.87489,20.93689 30.80689,38.07438 30.95999,38.08331 0.31685,0.0185 9.83674,-6.97164 10.19673,-7.48711 0.1293,-0.18515 0.2373,-5.41264 0.24,-11.61664 l 0.005,-11.28 h -9.31424 c -8.65013,0 -9.29929,-0.0389 -9.1046,-0.54628 0.33997,-0.88596 23.68366,-41.34693 23.85884,-41.35386 0.18368,-0.007 14.11733,24.14195 14.14978,24.52382 0.0118,0.13837 -0.75513,0.71333 -1.7042,1.27769 -0.94907,0.56435 -1.68338,1.19601 -1.63181,1.40368 0.0516,0.20767 1.88758,3.46696 4.08,7.24286 2.19243,3.7759 3.98623,6.9973 3.98623,7.15868 0,0.17136 -3.99332,0.29341 -9.6,0.29341 h -9.6 v 9.45889 c 0,7.4808 0.0837,9.40907 0.4,9.2207 0.22,-0.13099 13.26816,-9.79411 28.99591,-21.47358 15.72775,-11.67947 28.71827,-21.19279 28.86783,-21.14071 0.14955,0.0521 11.60731,9.8147 25.46168,21.6947 13.85437,11.88 25.37984,21.64656 25.61217,21.70346 0.34086,0.0835 0.42241,-1.35286 0.42241,-7.44 v -7.54348 h -6.10346 c -4.82407,0 -6.08178,-0.0865 -6,-0.41283 0.0569,-0.22706 3.55946,-6.41085 7.78346,-13.74175 5.71714,-9.92232 7.76949,-13.23136 8.03015,-12.94717 0.75373,0.82175 9.09738,15.63069 8.94529,15.87677 -0.0889,0.14391 -0.5968,0.44187 -1.12857,0.66214 -0.53178,0.22026 -0.96687,0.5349 -0.96687,0.69918 0,0.16429 1.2229,2.41482 2.71755,5.00118 l 2.71754,4.70248 -6.39754,0.0866 -6.39755,0.0866 0.0111,9.19338 0.0111,9.19337 9.16666,7.84 c 5.04166,4.312 9.32083,7.87965 9.50925,7.92812 0.19139,0.0492 3.09425,-8.03737 6.577,-18.32175 3.42893,-10.12544 6.33151,-18.37309 6.45019,-18.32813 0.27607,0.10461 109.07477,119.26845 109.07477,119.46623 0,0.0814 -1.6004,-1.11487 -3.5564,-2.65828 -36.8396,-29.06833 -93.90618,-73.91265 -93.97698,-73.84939 -0.051,0.0459 4.5873,13.3066 10.3083,29.46826 5.721,16.16166 10.37108,29.40838 10.33348,29.43716 -0.038,0.0288 -24.47642,-22.18442 -54.30842,-49.36269 -67.66475,-61.64555 -63.3028,-57.69903 -62.6456,-56.67933 0.47082,0.73051 68.87268,95.28586 71.2553,98.4998 l 0.8303,1.12 -1.6,-1.3384 c -0.88,-0.73612 -20.032,-17.52573 -42.56,-37.31025 -22.528,-19.78452 -41.00882,-35.93342 -41.06848,-35.88645 -0.0597,0.047 7.1188,16.04458 15.95215,35.55025 8.83335,19.50567 16.13598,35.65114 16.22808,35.87882 0.0921,0.22768 -2.69438,-1.01822 -6.19215,-2.76867 -59.63639,-29.84475 -90.37465,-45.12854 -90.20323,-44.85117 0.11631,0.1882 18.29023,25.8625 40.38649,57.05402 22.09626,31.19152 40.26549,56.86265 40.37608,57.04696 0.42878,0.71465 -3.18768,-3.65526 -73.07894,-88.30419 -39.6,-47.96162 -72.072,-87.20142 -72.16,-87.19957 -0.088,0.002 -2.896,3.55304 -6.24,7.89151 -3.344,4.33847 -6.22095,7.89466 -6.39322,7.90264 -0.17227,0.008 -10.85031,-13.07039 -23.72897,-29.06304 -12.87865,-15.99264 -23.6097,-29.26836 -23.84677,-29.5016 -0.36046,-0.35463 -7.00258,17.89883 -40.56473,111.47753 -22.07353,61.54589 -40.29301,112.22457 -40.48773,112.61929 -0.26944,0.54619 -0.83673,-9.89073 -2.37419,-43.68 z m -7.9801,-107.67768 4.16897,-4.4 h -5.47663 -5.47663 v 5.66494 5.66495 l 1.30766,-1.26495 c 0.71921,-0.69572 3.18369,-3.24494 5.47663,-5.66494 z"
       id="path7" />
  </g>
</svg>
